<?xml version="1.0" encoding="UTF-8" standalone="no"?>
<svg
   xmlns:dc="http://purl.org/dc/elements/1.1/"
   xmlns:cc="http://web.resource.org/cc/"
   xmlns:rdf="http://www.w3.org/1999/02/22-rdf-syntax-ns#"
   xmlns:svg="http://www.w3.org/2000/svg"
   xmlns="http://www.w3.org/2000/svg"
   xmlns:sodipodi="http://inkscape.sourceforge.net/DTD/sodipodi-0.dtd"
   xmlns:inkscape="http://www.inkscape.org/namespaces/inkscape"
   width="512"
   height="512"
   id="svg2"
   sodipodi:version="0.32"
   inkscape:version="0.43"
   sodipodi:docname="etpub.svg"
   sodipodi:docbase="/home/tjw/etpublogo"
   inkscape:export-filename="/home/tjw/etpublogo/etpub.png"
   inkscape:export-xdpi="90"
   inkscape:export-ydpi="90">
  <metadata
     id="metadata61">
    <rdf:RDF>
      <cc:Work
         rdf:about="">
        <dc:format>image/svg+xml</dc:format>
        <dc:type
           rdf:resource="http://purl.org/dc/dcmitype/StillImage" />
      </cc:Work>
    </rdf:RDF>
  </metadata>
  <defs
     id="defs59" />
  <sodipodi:namedview
     inkscape:cy="352.70211"
     inkscape:cx="305.25953"
     inkscape:zoom="0.86831672"
     inkscape:window-height="831"
     inkscape:window-width="785"
     inkscape:pageshadow="2"
     inkscape:pageopacity="0.0"
     borderopacity="1.0"
     bordercolor="#666666"
     pagecolor="#ffffff"
     id="base"
     inkscape:window-x="480"
     inkscape:window-y="250"
     inkscape:current-layer="svg2" />
  <path
     style="fill:#010101;stroke:none;opacity:0"
     d="M0 0L0 512L512 512L512 0L0 0z"
     id="path4" />
  <path
     style="fill:#cdcdcd; stroke:none;"
     d="M169 24L165 37L172 36L172 32L176 31L175 28L188 25C184.757 29.1166 181.968 29.0588 177 29L177 30L183 30L181 33L186 34L186 35L168 43L169 40L160 39L167 41C165.3 44.6538 165.671 46.8008 170 47L185 41C183.041 42.8095 176.364 46.5207 179 49L174 53L174 54L185 50L174 59L169 58L170 67L162 66L162 63L165 62L165 61C151.192 61.723 141.409 66.3189 134 78L137 89L141 90L134 106L144.61 95.588C150.018 90.7841 157.749 91.4561 157 82C164.706 79.3592 166.046 72.442 175 74L178 80L172 86L172 87L174 90L184 85C184 94.1367 180.689 100.153 188 107L184 107L184 108C190.598 109.996 188.976 115.979 182.981 117.711L149 122L149 123L162 122C160.176 125.048 158.475 125.264 155 125L155 126L158 127C156.607 133.077 158.144 135.903 164 138L148 142L155 137L155 136C146.712 136.091 134.931 137.517 133 147L117 151L116 151L113 158L113 154L112 154L108 167L105 166L86.7276 179.043L79 205L79 181L75 181C73.6287 176.368 70.2787 174.795 66 173L66 179L65 179L62 177L57 170L56 170C44.808 180.717 25.9022 207.961 45 220L48.6003 215.009C50.3892 212.333 57.744 208.984 56.7623 215.108L48 235L56.5108 239.429C63.1183 246.267 53.3858 259.029 57.2832 267.981L72 280C79.9504 274.743 82.6287 270.212 93 269L93 270L90 275L96 271L97 271L102 280L122 283L126 294L141.019 307.258L153 312C163.783 313.349 162.726 326.321 170 331L164 341L166 341L168 336L176 339L170 345L170 346C176.71 344.655 191.733 338.633 192 352C203.878 348.94 213.371 355.374 223 360.995C228.708 364.327 234.909 364.402 234.602 373L221 393L218 392C215.685 402.644 219.36 417.804 207.871 425.02L183 432L180 448L177 446C172.075 456.781 168.538 455.791 158 454L158 455L165 460C160.966 464.844 156.709 463.722 151 463L153 467L147 466L152 469L149 476L156 479L154 483L157 485L133 472L134 468L127 464L126 464L109.686 428L100.005 394L82.4684 376.961L66.2191 345L59.6296 331L63 321C58.337 320.391 60.2756 314.194 61.6944 311.028L69.6944 300.889C73.0279 294.365 70.3561 281.088 67 275L63 280C50.9297 271.278 53.1555 258.973 47.5833 247.259C40.1042 231.536 26.0453 219.688 25.0648 201L29.8843 180L37.4259 149C38.3556 146.694 42.5473 140.629 39 140C46.9124 120.995 56.8294 102.649 72.0895 88.4244L95.2631 66.1204L107 54L118.155 48.0008L145 28C104.947 44.7639 71.0668 78.1093 46.4244 113C22.398 147.018 7.24823 189.521 3.91435 231C-5.59334 349.291 64.7259 462.152 180 497.975C293.18 533.147 433.811 482.193 481.005 369L496 331L497 331L497 333L498 333L508.91 275C511.934 230.855 502.645 189.572 486 149L485 149L485 155L481 154L482 157L471 150C471.99 157.404 479.304 165.368 485 170L485 161C500.014 173.926 501.473 210.117 493 227C486.482 207.004 473.766 190.776 459 176L456 179L481.317 215L497 235L501 222L502 222L502.83 258L492.004 307L487.51 343L473.815 368L459.637 394C448.498 409.638 434.386 434.262 413 437C417.759 429.685 420.057 411.879 419.617 403L417.394 389L427.344 366L427 344L416.352 326.999C415.922 321.193 421.096 311.679 416.397 306.588L405.129 306.22L395.995 301.243L377 310.281L352 316.772L330 307L319 289L312 283L314 283L313.918 263L309.893 245.961C311.182 237.935 316.776 225.636 321.835 219.259L330.293 210.985L332.653 196.039L340 181C351.629 184.383 355.469 177.908 365 172.939L389 165L391 178L422 185L423.283 172.732C429.555 168.003 445.781 176.82 450.303 164.687C452.824 157.924 444.257 146.966 442 141L441 141L439 143L439 148L433 147L434 150L421 146L417 138L421 136L420 132L425.509 125.777L434.377 122.471C436.4 120.145 434.906 117.244 432.851 115.56C426.326 110.211 420.977 111.687 417 103C414.709 106.856 414.936 110.766 420 111L419 117L414 111L409 110C408.209 117.797 411.949 129.131 419 133L418 137L411 139L411 140L413 142L410 142L410 143L413 148L418 148L416 150L419 156C408.009 152.92 401.94 135.26 390 137L382 130L380 132L379 132L376 130C378.074 140.034 392.513 143.281 401 146L401 147L397 146L400 157L399 157C396.534 149.16 391.03 147.939 384 145.077L372.051 138.462L365.536 142.416L358.846 145.027L353.137 169.71L341 180C336.745 176.66 334.285 176.35 329 177C328.131 171.612 320.703 156.062 324.581 151.473L344 147C340.95 135.442 335.555 136.162 328 129L336 128L334 124L338 125L340 117L346 111L344 107L351 104L351 103L343 91L348 94C347.477 96.5401 347.405 96.6855 350 97L350 98L348 99L355 102L356 99L361 101L368 96L363 83L368 84C362.776 77.4473 362.702 78.4621 366 71L353.996 74.0833L339 60C340.948 67.8465 343.061 76.5761 352 78L350 80L350 81L358 90L358 91L356 96L353 95L352 98L351 98C350.408 91.0862 346.387 87.47 340 85L339 90L332 89L333 87C325.933 81.2389 325.566 78.4011 330 71L327 71L327 63C322.811 57.8553 324.358 51.827 326 46L332 48C338.726 44.9552 347.134 45.0157 352 51L344 52L344 53L359 57L359 56L354 55L354 54L358 54L358 53L354 47L350 46L350 45L353 44C348.084 39.4509 348.687 33.2554 341 33L341 32L348 30L348 29L329 24L331 22L331 21L329 19L295 12C295.523 9.45993 295.595 9.31451 293 9L293 8L297 8C287.143 2.09372 271.14 3 260 3C239.29 3 214.739 2.28815 195.09 10.0247L169 24z"
     id="path6" />
  <path
     style="fill:#ffffff; stroke:none;"
     d="M283 4L283 5L287 5L283 4M287 5L287 6L294 6L287 5M294 6L294 7L297 7L297 8L293 8L293 9L296 9L295 12L329 19L329 24L348 29L348 30L341 32L341 33L353 44L350 45L350 46L354 47C353.638 50.564 354.776 51.5757 358 53L358 54L354 54L354 55L359 56L359 57L344 53L344 52L352 51C348.613 44.7071 337.625 44.4047 332 48L326 46C323.853 51.2804 321.821 58.7759 327 63L327 71L330 71C324.407 77.4581 325.184 82.7072 333 87L332 89L339 90L340 85L353 95L356 96L358 91L358 90L350 81L350 80L352 78C343.097 75.6694 341.987 67.6384 339 60L354.985 74.973L366 71C361.537 77.944 361.566 78.2823 368 84L363 83L368 96C363.876 95.388 362.487 97.2874 361 101L356 99L355 102L350 98L350 97L348 94L343 91C343.544 96.6869 345.81 100.344 351 103L351 104L344 107L346 111L340 117L338 125L334 124L336 128L328 129L337.416 134.939L344 147L324.372 150.654C320.047 154.515 327.692 172.025 329 177L341 180L353.602 169.71L353.701 160L358.208 151.015L358.951 145.318C369.129 134.379 393.397 144.589 399 157L400 157L397 146L401 147L401 146C392.432 142.29 379.438 139.87 376 130L382 130L390 137C402.622 136.994 406.737 154.1 419 156L418 148L413 148L410 142L413 142L413 141L411 139L418 137L419 133C412.765 127.975 408.519 118.1 409 110L414 111L419 117L420 111C415.093 110.444 415.466 106.906 417 103L417 106L434.794 119.949L425.495 125.19L420 132L421 136L417 138L421 146L434 150L433 147L439 148L439 143L441 141L442 141L450.071 163.853C447.114 176.418 429.363 168.335 423.279 172.082L422 185L391 178L389 165C371.106 166.802 357.264 183.757 340 181L332.653 195.09L330.258 209.996L321.835 218.491C316.483 224.756 310.854 237.868 309.528 245.961L313.806 263C313.988 270.957 309.083 275.719 314 283L312 283C313.349 287.067 314.682 288.503 319 289L330 307L352 317.253L364 312.761L378 310.281L395.995 301.474L405.129 306.926L415.682 306.677C420.842 310.936 416.16 320.658 415.86 326C415.545 331.614 422.805 340.773 427 344L427.309 365L417.214 389L419.377 403C419.736 412.935 417.091 428.183 413 437L426 431.766C441.339 423.286 449.841 408.752 459.637 395L473.815 369L487.51 344L492.008 308L502.83 259L502 222L501 222L497 235C479.428 220.424 474.017 193.666 456 179L459 176C471.449 193.675 484.066 206.941 493 227C501.806 214.641 497.874 190.501 494 177C492.133 170.495 491.092 164.723 485 161L485 170L471 150L482 157L481 154L485 155C484.987 134.83 465.998 112.073 453.739 97C424.981 61.6413 387.635 34.6688 345 18.5764C329.172 12.6023 311.066 6.35233 294 6M107 54L95.2384 65.375L77 83.0756C60.2613 98.172 45.3226 118.053 39 140C42.7866 140 37.8612 146.615 37 149L30 179L25 203L31.3333 223.833L36.6667 227L40.3333 239L47.8333 248C51.6674 257.969 50.2658 275.892 63 280L67 275C69.2182 282.016 73.0092 293.011 69.5 300.181L61.3611 311.079C60.0098 314.398 58.5283 320.438 63 321L59.3634 331L65.7407 345L82.4684 377.91L100.005 395L109.37 428L126 464L127 464L128 462L134 468L133 472C139.94 476.018 148.552 486.222 157 485L154 483L156 479L149 476L151 474L152 469L147 466L153 467L151 463C156.281 463.981 162.023 465.399 165 460L158 455L158 454C168.16 456.716 173.345 457.257 177 446L180 448C183.037 441.977 184.66 438.809 183 432L208.74 425.096C219.329 417.391 216.667 402.964 218 392L221 393C225.157 386.917 234.652 380.864 234.802 373C234.964 364.434 229.884 364.431 224 360.995C214.674 355.549 203.448 347.815 192 352C192.496 338.656 176.813 343.713 170 346L170 345L176 339L168 336L166 341L164 341L170 331C163.726 325.073 163.831 312.481 153 312L142.005 307.258L126 294L122 283L102 280L97 271L96 271L96 274L90 275L93 270L93 269C83.2488 268.321 78.4693 274.027 72 280L57.723 267.98C50.7807 254.224 68.1735 241.478 48 235L57.2924 215.108C57.8381 211.908 53.9795 209.957 51.2731 211.213L45 220C31.7948 208.778 38.9887 188.847 48.8534 176.144L56 170L57 170L62 177L65 179L66 179L66 173L75 181L79 181L79 205L87.3426 179.019L105 166L108 167L112 154L113 154L113 158L116 151L117 151L133 147C136.005 138.241 146.623 136.242 155 136L155 137L148 142L164 138C158.703 135.3 157.034 132.981 158 127L155 126L155 125C158.582 125.665 160.713 125.651 162 122L149 123L149 122L183.945 117.711C189.927 115.914 190.518 109.11 184 108L184 107L188 107C182.095 99.3529 184 94.3401 184 85L174 90L172 87L172 86L178 80L175 74C166.089 71.3165 164.237 78.2189 157 82C157.28 91.1231 149.002 90.7401 143.904 95.588L134 106L141 90L137 89C137.69 84.9209 137.694 80.3927 134 78C143.228 67.2679 150.513 62.7061 165 61L165 62L162 63L162 66L170 67L169 58L174 59L185 50L174 54L174 53L179 49L185 41L170 47C166.031 46.5466 165.957 44.5198 167 41L160 39L169 40L168 43L186 35L186 34L181 33L183 30L177 30L177 29C181.888 29.1656 185.47 29.7754 188 25L175 28L176 31L172 32L172 36C169.068 34.1715 167.77 35.145 165 37L169 24C175.526 21.9709 188.56 16.9539 192 11C173.617 13.7047 154.045 22.3325 138.996 32.8835C130.774 38.6483 116.945 52.7782 107 54M291 12L291 13L295 13L291 12M315 22C320.443 28.936 331.323 33.4398 340 34L315 22M195 24L195 25L197 26C194.26 26.3087 191.931 26.0358 192 29L188 29L188 30C192.111 30.5069 194.953 31.1883 198 28L201 25L195 24z"
     id="path8" />
  <path
     style="fill:#cdcdcd; stroke:none;"
     d="M343 24L346 27L346 26L343 24z"
     id="path10" />
  <path
     style="fill:#ffffff; stroke:none;"
     d="M207 27L209 31L211 26L207 27M222 27L224 29L219 30L221 27L215 30L211 30L213 36L212 36L211 33L206 34C209.673 40.3582 215.392 35.3998 221 35L220 33L231 32C229.219 34.0067 217.837 36.677 224 38L224 39L219 38L218 41C226.101 44.0014 226.024 47.7601 222 55L225 54L226 59L221 57L222 59C227.054 64.254 214.921 64.558 218 68L218 69L215 70L217 72C216.425 74.3962 216.525 74.487 219 75L219 76L215 77C215.897 81.6205 220.254 94.5174 227.675 89.3387L237.785 75.865L252 66C257.899 67.6213 263.115 65.6426 267 61L258 61L258 60L262 58L268 60L264 56L268 52L268 51L265 50L268 46L264 44L267 43L267 42C263.714 38.5641 265.379 35.9783 267 32L261 34C259.776 26.6571 248.718 28.4121 248 32L233 30L238 30L236 27L222 27M288 30L286 33L286 34L293 34L297 37L291 33L291 32L294 30L288 30M198 31L195 33L196 36C199.469 38.7672 203.742 42.9615 207 38L202 37L204 35L204 32L198 36L200 32L198 31z"
     id="path12" />
  <path
     style="fill:#cdcdcd; stroke:none;"
     d="M214 31L214 32L218 33L214 31M154 35L149 40L154 40L157 37L157 36L154 35z"
     id="path14" />
  <path
     style="fill:#ffffff; stroke:none;"
     d="M181 40L195 39L195 38L187 39L187 38L191 36C186.681 35.7316 183.823 36.6901 181 40M184 49L192 51L190 57C193.956 57 189.8 60.8539 188 61.8333L177 64.3333L175 67L186 79L185 73L189 77L195 65L196 71L203 67L198 58L203 56L202 50L199 50L202 48L201 46L203 44L197 40C191.236 41.3341 185.773 42.8357 184 49M345 42L345 43L350 45L345 42M171 47L175 44L171 47z"
     id="path16" />
  <path
     style="fill:#cdcdcd; stroke:none;"
     d="M197 47L201 46L197 47M133 50L133 52L139 52L139 49L133 50z"
     id="path18" />
  <path
     style="fill:#ffffff; stroke:none;"
     d="M185 60L189 57L185 60z"
     id="path20" />
  <path
     style="fill:#cdcdcd; stroke:none;"
     d="M126 59L126 60L130 61L126 59M363 62L363 63L367 64L367 63L363 62M189 63L192 65L189 63M355 66L355 67L359 70L360 70L358 65L355 66M361 66L367 70L361 66z"
     id="path22" />
  <path
     style="fill:#ffffff; stroke:none;"
     d="M161 68L161 69L165 69L161 68M273 75L272 75L270 72L269 72L267 75L269 77L271 80C277.566 80.811 282.771 80.5635 286 74L283 71L273 75z"
     id="path24" />
  <path
     style="fill:#cdcdcd; stroke:none;"
     d="M112 83L114 85L111 89L118 82L112 83M345 83L347 86L345 83M431 83L439 93L440 92L431 83M427 90C428.239 102.359 436.748 105.647 444.815 113.326C449.603 117.883 450.704 123.332 458 124L447 106L446 105L434 100C433.655 95.5391 430.954 91.9742 427 90z"
     id="path26" />
  <path
     style="fill:#ffffff; stroke:none;"
     d="M314 103L316 102L318 107C323.739 108.395 322.413 113.124 322 118L328 118L328 119L323 124L338 118L337 111L320 102L320 96L315 97L316 93C311.122 94.9674 312.415 98.7619 314 103z"
     id="path28" />
  <path
     style="fill:#cdcdcd; stroke:none;"
     d="M107 98L105 101L107 98M115 104L118 102L115 104M171 104L174 106L171 104z"
     id="path30" />
  <path
     style="fill:#ffffff; stroke:none;"
     d="M310 106L307 110L310 114L309 119L318 117C317.457 111.104 316.579 106.503 310 106z"
     id="path32" />
  <path
     style="fill:#cdcdcd; stroke:none;"
     d="M103 111L109 112L109 116L115 117C118.3 106.714 110.191 105.848 103 111M97 133L112 120L109 128L110 132L119 128C118.432 110.635 99.2747 121.57 97 133z"
     id="path34" />
  <path
     style="fill:#ffffff; stroke:none;"
     d="M173 131L187 133L187 137L189 137L190 134L187 132L190 131L190 127L184 126L183 124L188 118C181.703 119.651 176.389 125.598 173 131M164 120L169 124L164 120z"
     id="path36" />
  <path
     style="fill:#cdcdcd; stroke:none;"
     d="M116 133C119.212 135.245 121.398 135.503 125 134L116 133z"
     id="path38" />
  <path
     style="fill:#ffffff; stroke:none;"
     d="M159 133L162 135L159 133M167 133C165.091 135.329 163.295 137.185 167 138L167 137L165 136L167 133z"
     id="path40" />
  <path
     style="fill:#cdcdcd; stroke:none;"
     d="M105 135C106.101 140.137 112.492 137.651 116 136L116 135L105 135z"
     id="path42" />
  <path
     style="fill:#ffffff; stroke:none;"
     d="M373 144L376 148L373 144M123 148L123 149L127 149L123 148M441 149L440 153L441 149M34 150L28 170L29 170L34 150M376 150L375 151L378 159L380 159L378 150L376 150M391 159L400 163L398 157L391 159M422 159L422 160L428 159L422 159M361 159L361 161L363 161L363 159L361 159M27 171L27 175L28 175L27 171M64 214L72 213L82 227L82 228L80 230L90 232C85.9734 224.605 73.5918 204.207 64 214M93 234L94 241L88 239L96 245L97 245L107 245C103.645 238.842 99.1784 236.691 93 234M76 236L81 239L76 236M110 247L110 248L115 249L110 247z"
     id="path44" />
  <path
     style="fill:#cdcdcd; stroke:none;"
     d="M51 254L52 259L53 259L51 254M425 260L427 265L431 262L425 260M90 276L90 283L91 283L90 276z"
     id="path46" />
  <path
     style="fill:#ffffff; stroke:none;"
     d="M125 287L128 284L125 287z"
     id="path48" />
  <path
     style="fill:#cdcdcd; stroke:none;"
     d="M482 293L479 307L483 305L484 293L482 293M380 297L381 304C383.744 301.59 382.855 298.85 380 297M473 315L474 333L475 333L473 315z"
     id="path50" />
  <path
     style="fill:#ffffff; stroke:none;"
     d="M496 331L478 376C486.203 368.968 490.037 353.925 493.808 344L496 331z"
     id="path52" />
  <path
     style="fill:#cdcdcd; stroke:none;"
     d="M480 333L479 345L480 345L480 333M161 341L159 342L159 343L161 341M99 384L103 387L99 384z"
     id="path54" />
  <path
     style="fill:#ffffff; stroke:none;"
     d="M160 487L160 488L164 489L164 488L160 487z"
     id="path56" />
  <text
     xml:space="preserve"
     style="font-size:188.68081665px;font-style:normal;font-variant:normal;font-weight:bold;font-stretch:normal;text-align:start;line-height:125%;writing-mode:lr-tb;text-anchor:start;fill:#000000;fill-opacity:1;stroke:none;stroke-width:1pt;stroke-linecap:butt;stroke-linejoin:miter;stroke-opacity:1;font-family:Bitstream Vera Sans"
     x="6.7198629"
     y="258.00577"
     id="text1361"
     transform="scale(0.804503,1.243004)"
     sodipodi:linespacing="125%"><tspan
       sodipodi:role="line"
       id="tspan1363"
       x="6.7198629"
       y="258.00577">etpub</tspan></text>
</svg>
